<?xml version="1.0" encoding="utf-8"?>
<!DOCTYPE svg PUBLIC "-//W3C//DTD SVG 1.1//EN" "http://www.w3.org/Graphics/SVG/1.1/DTD/svg11.dtd">
<svg version="1.1" id="Layer_1"
	 xmlns="http://www.w3.org/2000/svg" xmlns:xlink="http://www.w3.org/1999/xlink" x="0px" y="0px" width="424.236px"
	 height="131.176px" viewBox="0 0 212.118 65.883" enable-background="new 0 0 212.118 65.883" xml:space="preserve">
<switch>
	<g>
		<g>
			<path fill="#545454" d="M50.751,48.727V12.472h7.251v17.547c1.885-2.32,4.544-3.094,7.299-3.094
				c6.042,0,10.586,5.269,10.586,11.167S71.344,49.21,65.302,49.21c-2.755,0-5.849-0.87-7.299-3.046v2.562H50.751z M63.078,43.409
				c2.9,0,5.076-2.514,5.076-5.317s-2.175-5.317-5.076-5.317s-5.076,2.514-5.076,5.317S60.178,43.409,63.078,43.409z"/>
			<path fill="#545454" d="M84.35,15.855c2.32,0,4.254,1.885,4.254,4.254c0,2.32-1.934,4.254-4.254,4.254
				c-2.369,0-4.254-1.934-4.254-4.254C80.096,17.741,81.981,15.855,84.35,15.855z M80.724,48.727V27.409h7.251v21.318H80.724z"/>
			<path fill="#545454" d="M115.819,48.727h-7.25V36.642c0-2.514-0.967-3.867-3.239-3.867s-4.061,2.417-4.061,5.317v10.635h-7.251
				V27.409h7.251v2.61c1.45-1.837,3.722-3.094,6.526-3.094c5.704,0,8.024,3.916,8.024,9.716V48.727z"/>
			<path fill="#545454" d="M144.826,48.727h-7.251v-2.562c-1.45,2.176-4.592,3.046-7.299,3.046c-6.043,0-10.587-5.221-10.587-11.118
				s4.544-11.167,10.587-11.167c2.707,0,5.414,0.773,7.299,3.094V12.472h7.251V48.727z M132.499,32.774
				c-2.9,0-5.075,2.514-5.075,5.317s2.175,5.317,5.075,5.317s5.076-2.514,5.076-5.317S135.399,32.774,132.499,32.774z"/>
			<path fill="#545454" d="M173.639,38.962h-16.532c0,2.466,1.74,5.075,4.592,5.075c2.562,0,4.158-1.691,4.206-3.238h7.396
				c-1.256,5.607-5.801,8.411-11.456,8.411c-7.348,0-12.423-4.351-12.423-11.118c0-6.671,5.269-11.167,12.423-11.167
				c6.478,0,11.843,3.867,11.843,10.683C173.687,38.043,173.639,38.527,173.639,38.962z M166.726,35.53c0,0-0.338-3.964-4.736-3.964
				c-4.545,0-4.786,3.964-4.786,3.964H166.726z"/>
			<path fill="#545454" d="M185.532,38.092v10.635h-7.251V27.409h7.251v2.61c1.111-1.595,2.949-3.094,5.607-3.094
				c0.629,0,1.596,0.193,2.176,0.483v6.574h-0.098c-0.725-0.87-1.788-1.208-2.9-1.208C187.61,32.774,185.532,35.53,185.532,38.092z"
				/>
		</g>
		<circle fill="none" stroke="#F5A252" stroke-width="4.8342" stroke-miterlimit="10" cx="27.879" cy="23.939" r="9.542"/>
		<circle fill="none" stroke="#579ACA" stroke-width="4.8342" stroke-miterlimit="10" cx="27.879" cy="42.499" r="9.543"/>
		<circle fill="none" stroke="#E66581" stroke-width="4.8342" stroke-miterlimit="10" cx="18.551" cy="33.289" r="9.543"/>
		<path fill="none" stroke="#579ACA" stroke-width="4.8342" stroke-miterlimit="10" d="M20.196,36.836
			c0.759-1.031,1.74-1.927,2.921-2.607c4.566-2.63,10.401-1.06,13.031,3.507"/>
		<path fill="none" stroke="#F5A252" stroke-width="4.8342" stroke-miterlimit="10" d="M19.61,28.701
			c-2.63-4.566-1.061-10.401,3.507-13.032c4.567-2.63,10.401-1.059,13.031,3.508"/>
	</g>
</switch>
</svg>
